<svg xmlns="http://www.w3.org/2000/svg" width="36" height="36" fill="none"><path d="M18 0C8.052 0 0 8.05 0 18a17.96 17.96 0 0 0 2.387 8.96l-2.32 7.202c-.162.502-.03 1.053.344 1.425s.918.507 1.425.344l7.202-2.32C11.76 35.177 14.843 36 18 36c9.948 0 18-8.05 18-18S27.95 0 18 0zm0 33.188c-2.852 0-5.632-.796-8.04-2.3-.346-.216-.776-.275-1.177-.146l-5.2 1.674 1.674-5.2c.127-.394.073-.825-.146-1.177-1.505-2.407-2.3-5.187-2.3-8.04C2.813 9.626 9.626 2.813 18 2.813S33.188 9.626 33.188 18 26.374 33.188 18 33.188zM19.758 18A1.76 1.76 0 0 1 18 19.758 1.76 1.76 0 0 1 16.242 18 1.76 1.76 0 0 1 18 16.242 1.76 1.76 0 0 1 19.758 18zm7.03 0a1.76 1.76 0 0 1-1.758 1.758A1.76 1.76 0 0 1 23.273 18a1.76 1.76 0 0 1 1.758-1.758A1.76 1.76 0 0 1 26.789 18zm-14.063 0a1.76 1.76 0 0 1-1.758 1.758A1.76 1.76 0 0 1 9.211 18a1.76 1.76 0 0 1 1.758-1.758A1.76 1.76 0 0 1 12.727 18z" fill="#9f9da3"/></svg>