<svg width="50" height="50" viewBox="0 0 50 50" fill="none" xmlns="http://www.w3.org/2000/svg">
<path d="M25 35.4168C11.5625 35.4168 1.04163 30.8335 1.04163 25.0002C1.04163 19.1668 11.5625 14.5835 25 14.5835C38.4375 14.5835 48.9583 19.1668 48.9583 25.0002C48.9583 30.8335 38.4375 35.4168 25 35.4168ZM25 16.6668C11.875 16.6668 3.12496 20.9377 3.12496 25.0002C3.12496 29.0627 11.875 33.3335 25 33.3335C38.125 33.3335 46.875 29.0627 46.875 25.0002C46.875 20.9377 38.125 16.6668 25 16.6668Z" fill="#80DEEA"/>
<path d="M15.7291 46.4584C14.6875 46.4584 13.8541 46.25 13.0208 45.7292C7.91665 42.8125 9.27081 31.4584 15.9375 19.7917C19.0625 14.375 22.9166 9.79171 26.6666 6.87504C30.7291 3.75004 34.375 2.81254 36.875 4.27087C39.4792 5.72921 40.4166 9.37504 39.7916 14.4792C39.1666 19.2709 37.0833 24.8959 33.9583 30.3125C30.8333 35.7292 26.9791 40.3125 23.2291 43.2292C20.5208 45.3125 17.9166 46.4584 15.7291 46.4584ZM34.2708 5.62504C32.6041 5.62504 30.4166 6.56254 28.0208 8.43754C24.4791 11.25 20.8333 15.625 17.8125 20.8334C11.25 32.1875 10.625 41.9792 14.0625 43.9584C15.8333 45 18.75 44.0625 21.9791 41.5625C25.5208 38.75 29.1666 34.375 32.1875 29.1667C35.2083 23.9584 37.1875 18.6459 37.8125 14.1667C38.3333 10 37.7083 7.08338 35.9375 6.04171C35.4166 5.83338 34.8958 5.62504 34.2708 5.62504Z" fill="#80DEEA"/>
<path d="M34.375 46.4582C29.1667 46.4582 21.6667 40.104 16.0417 30.2082C9.27087 18.5415 7.9167 7.18733 13.0209 4.27066C18.125 1.354 27.2917 8.12483 34.0625 19.7915C37.1875 25.2082 39.2709 30.8332 39.8959 35.6248C40.625 40.729 39.5834 44.2707 36.9792 45.8332C36.1459 46.2498 35.3125 46.4582 34.375 46.4582ZM14.0625 6.0415C10.625 8.02066 11.25 17.8123 17.8125 29.1665C24.375 40.5207 32.5 45.9373 35.9375 43.9582C37.7084 42.9165 38.3334 39.9998 37.8125 35.8332C37.1875 31.354 35.2084 26.0415 32.1875 20.8332C25.625 9.479 17.5 4.06233 14.0625 6.0415Z" fill="#80DEEA"/>
<path d="M25 29.1668C27.3012 29.1668 29.1667 27.3013 29.1667 25.0002C29.1667 22.699 27.3012 20.8335 25 20.8335C22.6989 20.8335 20.8334 22.699 20.8334 25.0002C20.8334 27.3013 22.6989 29.1668 25 29.1668Z" fill="#80DEEA"/>
</svg>
