<svg xmlns="http://www.w3.org/2000/svg" width="15" height="15" fill="none"><g clip-path="url(#A)" fill="#3e5066"><path d="M7.607 7.226c-.993 0-1.852-.356-2.555-1.058S3.994 4.605 3.994 3.613 4.35 1.76 5.052 1.058 6.614 0 7.607 0 9.46.356 10.16 1.058s1.06 1.562 1.06 2.555a3.49 3.49 0 0 1-1.06 2.555 3.49 3.49 0 0 1-2.553 1.058h0zm-6.322 4.308a8.92 8.92 0 0 1 .122-.948c.06-.34.14-.66.233-.953.097-.303.23-.602.392-.9a3.39 3.39 0 0 1 .59-.77c.233-.223.52-.402.85-.533s.693-.196 1.083-.196c.153 0 .3.063.587.25l.612.394a3.58 3.58 0 0 0 .79.35 3.13 3.13 0 0 0 .968.156c.322 0 .647-.053.968-.156.328-.106.595-.223.8-.35l.612-.395c.286-.186.434-.25.587-.25a2.93 2.93 0 0 1 1.083.196c.33.13.615.3.85.533.223.213.422.472.6.77a4.7 4.7 0 0 1 .392.89c.094.293.172.614.233.953s.1.655.12.948l.03.886c0 .783-.25 1.417-.74 1.884-.485.46-1.126.695-1.906.695H3.9c-.78 0-1.42-.234-1.906-.695-.5-.467-.74-1.1-.74-1.884l.03-.886z"/></g><defs><clipPath id="A"><rect width="15" height="15" rx="3" transform="matrix(-1 0 0 1 15 0)" fill="#fff"/></clipPath></defs></svg>